<svg width="208" height="61" viewBox="0 0 208 61" fill="none" xmlns="http://www.w3.org/2000/svg">
<path d="M39.416 50H200.416V54H39.416V50Z" fill="#FF9614"/>
<path d="M102.416 13.2418L113.259 2.10963e-06L124.101 13.2418L113.259 26.4836L102.416 13.2418Z" fill="#FF9614"/>
<path d="M34.068 23.9601C32.572 23.7788 29.9427 23.5294 26.18 23.2121C24.0947 23.1214 22.4173 23.0761 21.148 23.0761C19.516 23.0761 17.9747 23.1214 16.524 23.2121V12.6721H18.224C21.9413 12.6721 25.7947 12.9214 29.784 13.4201C31.0533 13.6014 32.4813 13.8508 34.068 14.1681V23.9601ZM22.848 46.1961C22.848 45.2441 22.78 44.5641 22.644 44.1561C22.508 43.7028 22.2813 43.4081 21.964 43.2721C21.6467 43.0908 21.1027 42.9548 20.332 42.8641L11.968 41.8441C7.02667 41.3001 3.69467 39.6908 1.972 37.0161C1.20133 35.8828 0.68 34.5001 0.408 32.8681C0.136 31.2361 0 29.2414 0 26.8841C0 21.8521 1.292 18.2254 3.876 16.0041C5.96133 14.1908 9.22533 13.1254 13.668 12.8081V26.4761C13.668 27.0654 13.6907 27.5641 13.736 27.9721C13.7813 28.3801 13.872 28.6974 14.008 28.9241C14.144 29.1961 14.3707 29.4001 14.688 29.5361C15.0053 29.6268 15.4813 29.6948 16.116 29.7401L25.5 30.8961C27.4493 31.1681 29.036 31.5081 30.26 31.9161C31.484 32.3241 32.5267 32.9588 33.388 33.8201C35.428 35.9508 36.448 39.7361 36.448 45.1761C36.448 50.9334 35.1787 54.9681 32.64 57.2801C31.5067 58.3228 30.124 59.0934 28.492 59.5921C26.9053 60.0454 25.024 60.3401 22.848 60.4761V46.1961ZM19.244 60.5441C14.7107 60.5441 10.4947 60.3401 6.596 59.9321C4.284 59.7054 2.53867 59.4788 1.36 59.2521V49.3241C4.03467 49.5508 7.09467 49.7774 10.54 50.0041C12.716 50.0948 14.2573 50.1401 15.164 50.1401C17.612 50.1401 19.2213 50.0721 19.992 49.9361V60.5441H19.244Z" fill="#2A313D"/>
<path d="M45.93 24.608H46.508L49.194 33.924L45.284 48H38.484L45.93 24.608ZM53.58 43.852H47.902L49.33 38.616H52.05L48.038 24.608H54.26L61.706 48H54.77L53.58 43.852Z" fill="#2A313D"/>
<path d="M63.9678 25.56V24.608H70.7678L83.8918 47.014V48H77.1258L63.9678 25.56ZM77.4318 33.142V24.608H83.8918V44.192L77.4318 33.142ZM63.9678 28.382L70.4278 39.432V48H63.9678V28.382Z" fill="#2A313D"/>
<path d="M87.836 15.2561V13.2161H100.348L119.932 54.8321L117.688 60.0001H108.848L87.836 15.2561ZM126.256 40.3481H125.984L121.428 51.3641L115.58 38.8521L126.256 13.2161H139.176V60.0001H126.256V40.3481ZM87.836 21.9881L100.348 48.6441V60.0001H87.836V21.9881Z" fill="#2A313D"/>
<path d="M125.416 50.0001H141.416V54.0001H125.416V50.0001Z" fill="#FF9614"/>
<path d="M148.93 24.608H149.508L152.194 33.924L148.284 48H141.484L148.93 24.608ZM156.58 43.852H150.902L152.33 38.616H155.05L151.038 24.608H157.26L164.706 48H157.77L156.58 43.852Z" fill="#2A313D"/>
<path d="M166.968 24.608H173.768V48H166.968V24.608ZM176.556 40.044H175.196V34.842H176.352C177.054 34.842 177.587 34.8193 177.95 34.774C178.312 34.706 178.596 34.5927 178.8 34.434C178.981 34.2753 179.106 34.0373 179.174 33.72C179.242 33.4027 179.276 32.938 179.276 32.326C179.276 31.714 179.242 31.2493 179.174 30.932C179.106 30.592 178.981 30.3427 178.8 30.184C178.618 30.0253 178.346 29.9233 177.984 29.878C177.644 29.8327 177.1 29.81 176.352 29.81H175.196V24.608H178.698C180.307 24.608 181.61 24.7667 182.608 25.084C183.605 25.4013 184.376 25.8887 184.92 26.546C185.418 27.158 185.747 27.9173 185.906 28.824C186.087 29.7307 186.178 30.898 186.178 32.326C186.178 34.162 186.008 35.5787 185.668 36.576C185.192 37.8453 184.353 38.7407 183.152 39.262L186.688 48H179.548L176.556 40.044Z" fill="#2A313D"/>
<path d="M187.974 24.608H207.116V30.048H187.974V24.608ZM194.128 31.408H200.928V48H194.128V31.408Z" fill="#2A313D"/>
</svg>
