<svg width="208" height="61" viewBox="0 0 208 61" fill="none" xmlns="http://www.w3.org/2000/svg">
<path d="M40 49.9999H201V53.9999H40V49.9999Z" fill="#FF9614"/>
<path d="M103 13.2418L113.843 -5.89255e-05L124.685 13.2418L113.843 26.4836L103 13.2418Z" fill="#FF9614"/>
<path d="M34.652 23.96C33.156 23.7787 30.5267 23.5294 26.764 23.212C24.6787 23.1214 23.0013 23.076 21.732 23.076C20.1 23.076 18.5587 23.1214 17.108 23.212V12.672H18.808C22.5254 12.672 26.3787 12.9214 30.368 13.42C31.6373 13.6014 33.0653 13.8507 34.652 14.168V23.96ZM23.432 46.196C23.432 45.244 23.364 44.564 23.228 44.156C23.092 43.7027 22.8654 43.408 22.548 43.272C22.2307 43.0907 21.6867 42.9547 20.916 42.864L12.552 41.844C7.61068 41.3 4.27868 39.6907 2.55602 37.016C1.78535 35.8827 1.26401 34.5 0.992015 32.868C0.720015 31.236 0.584015 29.2414 0.584015 26.884C0.584015 21.852 1.87602 18.2254 4.46002 16.004C6.54535 14.1907 9.80935 13.1254 14.252 12.808V26.476C14.252 27.0654 14.2747 27.564 14.32 27.972C14.3653 28.38 14.456 28.6974 14.592 28.924C14.728 29.196 14.9547 29.4 15.272 29.536C15.5893 29.6267 16.0653 29.6947 16.7 29.74L26.084 30.896C28.0334 31.168 29.62 31.508 30.844 31.916C32.068 32.324 33.1107 32.9587 33.972 33.82C36.012 35.9507 37.032 39.736 37.032 45.176C37.032 50.9334 35.7627 54.968 33.224 57.28C32.0907 58.3227 30.708 59.0934 29.076 59.592C27.4893 60.0454 25.608 60.34 23.432 60.476V46.196ZM19.828 60.544C15.2947 60.544 11.0787 60.34 7.18002 59.932C4.86802 59.7054 3.12268 59.4787 1.94402 59.252V49.324C4.61868 49.5507 7.67868 49.7774 11.124 50.004C13.3 50.0947 14.8413 50.14 15.748 50.14C18.196 50.14 19.8053 50.072 20.576 49.936V60.544H19.828Z" fill="black"/>
<path d="M46.514 24.6079H47.092L49.778 33.9239L45.868 47.9999H39.068L46.514 24.6079ZM54.164 43.8519H48.486L49.914 38.6159H52.634L48.622 24.6079H54.844L62.29 47.9999H55.354L54.164 43.8519Z" fill="black"/>
<path d="M64.5518 25.5599V24.6079H71.3518L84.4758 47.0139V47.9999H77.7098L64.5518 25.5599ZM78.0158 33.1419V24.6079H84.4758V44.1919L78.0158 33.1419ZM64.5518 28.3819L71.0118 39.4319V47.9999H64.5518V28.3819Z" fill="black"/>
<path d="M88.42 15.256V13.216H100.932L120.516 54.832L118.272 60H109.432L88.42 15.256ZM126.84 40.348H126.568L122.012 51.364L116.164 38.852L126.84 13.216H139.76V60H126.84V40.348ZM88.42 21.988L100.932 48.644V60H88.42V21.988Z" fill="black"/>
<path d="M126 50H142V54H126V50Z" fill="#FF9614"/>
<path d="M149.514 24.6079H150.092L152.778 33.9239L148.868 47.9999H142.068L149.514 24.6079ZM157.164 43.8519H151.486L152.914 38.6159H155.634L151.622 24.6079H157.844L165.29 47.9999H158.354L157.164 43.8519Z" fill="black"/>
<path d="M167.552 24.6079H174.352V47.9999H167.552V24.6079ZM177.14 40.0439H175.78V34.8419H176.936C177.638 34.8419 178.171 34.8193 178.534 34.7739C178.896 34.7059 179.18 34.5926 179.384 34.4339C179.565 34.2753 179.69 34.0373 179.758 33.7199C179.826 33.4026 179.86 32.9379 179.86 32.3259C179.86 31.7139 179.826 31.2493 179.758 30.9319C179.69 30.5919 179.565 30.3426 179.384 30.1839C179.202 30.0253 178.93 29.9233 178.568 29.8779C178.228 29.8326 177.684 29.8099 176.936 29.8099H175.78V24.6079H179.282C180.891 24.6079 182.194 24.7666 183.192 25.0839C184.189 25.4013 184.96 25.8886 185.504 26.5459C186.002 27.1579 186.331 27.9173 186.49 28.8239C186.671 29.7306 186.762 30.8979 186.762 32.3259C186.762 34.1619 186.592 35.5786 186.252 36.5759C185.776 37.8453 184.937 38.7406 183.736 39.2619L187.272 47.9999H180.132L177.14 40.0439Z" fill="black"/>
<path d="M188.558 24.6079H207.7V30.0479H188.558V24.6079ZM194.712 31.4079H201.512V47.9999H194.712V31.4079Z" fill="black"/>
</svg>
